<svg width="65" height="61" viewBox="0 0 65 61" fill="none" xmlns="http://www.w3.org/2000/svg">
<path d="M26.1979 21.8541L25.9022 22.0501L24.0966 19.3163L23.8321 18.9148L23.6133 18.5842L23.8249 18.4436L24.0689 18.2825C24.0653 18.375 24.0641 18.4676 24.0641 18.5602C24.0641 18.6371 24.0653 18.7152 24.0677 18.7922L26.1979 21.8541Z" fill="white"/>
<path d="M25.2227 31.611C25.1433 31.6567 25.064 31.7023 24.9847 31.7468C22.7582 32.9947 20.182 33.7064 17.4387 33.7064C8.98021 33.7064 2.12305 26.9442 2.12305 18.6023C2.12305 18.0686 2.1507 17.5408 2.206 17.0203L2.32982 0H6.05293V8.50052C8.85638 5.42899 12.9185 3.49831 17.4387 3.49831C20.1543 3.49831 22.7041 4.19556 24.9149 5.41817C24.9955 5.46145 25.0736 5.50593 25.153 5.55161C23.9424 6.30296 22.8436 7.2094 21.8867 8.24326C21.8073 8.2096 21.728 8.17834 21.6486 8.14709C20.3263 7.63376 18.9029 7.36568 17.4387 7.36568C14.3707 7.36568 11.4891 8.5414 9.32403 10.6752C7.17455 12.7959 5.99042 15.6113 5.99042 18.6023C5.99042 21.5933 7.17455 24.4088 9.32403 26.5294C11.4891 28.6645 14.3707 29.8402 17.4387 29.8402C18.9245 29.8402 20.3671 29.5637 21.7063 29.0359C21.7857 29.0047 21.865 28.9722 21.9432 28.9386H21.9444L25.2227 31.611Z" fill="white"/>
<path d="M30.1185 27.0787C30.0716 27.1473 30.0235 27.2146 29.9754 27.2807C28.7408 26.8071 27.63 26.0966 26.7031 25.2094C26.7524 25.1445 26.8005 25.0795 26.8474 25.0134C27.6709 25.8069 28.6446 26.4572 29.7242 26.9189C29.854 26.9754 29.9862 27.0283 30.1185 27.0787Z" fill="white"/>
<path d="M29.7227 26.9188L29.974 27.2807C30.022 27.2146 30.0701 27.1472 30.117 27.0787C29.9848 27.0282 29.8525 26.9753 29.7227 26.9188ZM26.4227 21.7062L26.1979 21.8541L27.5768 23.8353C27.6225 23.7499 27.667 23.6646 27.7103 23.578C28.2512 22.5045 28.6131 21.3504 28.7802 20.1494L26.4227 21.7062ZM24.0689 18.2825L23.8249 18.4436L24.0677 18.7922C24.0653 18.7152 24.0641 18.6371 24.0641 18.5602C24.0641 18.4676 24.0653 18.375 24.0689 18.2825ZM23.8237 18.5602C23.8237 18.5217 23.8237 18.482 23.8249 18.4436L23.6133 18.5842L23.8321 18.9148C23.8261 18.797 23.8237 18.6792 23.8237 18.5602ZM26.4227 21.7062L26.1979 21.8541L27.5768 23.8353C27.6225 23.7499 27.667 23.6646 27.7103 23.578C28.2512 22.5045 28.6131 21.3504 28.7802 20.1494L26.4227 21.7062ZM26.4227 21.7062L26.1979 21.8541L27.5768 23.8353C27.6225 23.7499 27.667 23.6646 27.7103 23.578C28.2512 22.5045 28.6131 21.3504 28.7802 20.1494L26.4227 21.7062ZM26.4227 21.7062L27.7103 23.578C28.2512 22.5045 28.6131 21.3504 28.7802 20.1494L26.4227 21.7062ZM26.4227 21.7062L27.7103 23.578C28.2512 22.5045 28.6131 21.3504 28.7802 20.1494L26.4227 21.7062Z" fill="white"/>
<path d="M21.9442 28.9386C21.8648 28.9723 21.7855 29.0047 21.7061 29.036L24.9845 31.7469C25.0638 31.7024 25.1431 31.6567 25.2225 31.611L21.9442 28.9386ZM26.4222 21.7064L27.7098 23.5781C28.2507 22.5046 28.6126 21.3505 28.7797 20.1496L26.4222 21.7064ZM26.4222 21.7064L27.7098 23.5781C28.2507 22.5046 28.6126 21.3505 28.7797 20.1496L26.4222 21.7064ZM26.4222 21.7064L27.7098 23.5781C28.2507 22.5046 28.6126 21.3505 28.7797 20.1496L26.4222 21.7064ZM26.4222 21.7064L27.7098 23.5781C28.2507 22.5046 28.6126 21.3505 28.7797 20.1496L26.4222 21.7064ZM29.7222 26.919C28.6426 26.4573 27.6689 25.807 26.8454 25.0135C26.7985 25.0797 26.7504 25.1446 26.7011 25.2095C27.628 26.0967 28.7388 26.8072 29.9734 27.2808C30.0215 27.2147 30.0696 27.1474 30.1165 27.0789C29.9843 27.0284 29.852 26.9755 29.7222 26.919ZM26.4222 21.7064L27.7098 23.5781C28.2507 22.5046 28.6126 21.3505 28.7797 20.1496L26.4222 21.7064ZM24.0672 18.7923C24.0648 18.7154 24.0636 18.6372 24.0636 18.5603C24.0636 18.4677 24.0648 18.3752 24.0684 18.2826L23.8244 18.4437L23.6128 18.5843L23.8316 18.9149L24.096 19.3165C24.0804 19.1434 24.0708 18.9678 24.0672 18.7923ZM26.4222 21.7064L27.7098 23.5781C28.2507 22.5046 28.6126 21.3505 28.7797 20.1496L26.4222 21.7064ZM26.4222 21.7064L27.7098 23.5781C28.2507 22.5046 28.6126 21.3505 28.7797 20.1496L26.4222 21.7064ZM26.4222 21.7064L27.7098 23.5781C28.2507 22.5046 28.6126 21.3505 28.7797 20.1496L26.4222 21.7064ZM26.4222 21.7064L27.7098 23.5781C28.2507 22.5046 28.6126 21.3505 28.7797 20.1496L26.4222 21.7064ZM21.6484 8.14713C21.7278 8.17839 21.8071 8.20965 21.8865 8.24331C22.8434 7.20944 23.9422 6.30301 25.1527 5.55166C25.0734 5.50597 24.9953 5.46149 24.9147 5.41821L21.6484 8.14713Z" fill="white"/>
<path d="M37.9187 21.5104L34.4528 23.7994L32.569 20.9478C32.2132 23.1935 31.3573 25.2756 30.1154 27.0789C29.9832 27.0284 29.8509 26.9755 29.7211 26.919C28.6416 26.4574 27.6678 25.807 26.8443 25.0136C27.1136 24.6349 27.3576 24.2406 27.5752 23.8354C27.6209 23.7501 27.6654 23.6647 27.7087 23.5782C28.2497 22.5046 28.6115 21.3506 28.7786 20.1496L26.4212 21.7064L26.1963 21.8543L24.0661 18.7923C24.0637 18.7154 24.0625 18.6373 24.0625 18.5603C24.0625 18.4678 24.0637 18.3752 24.0673 18.2826L28.7618 15.1822L32.2276 12.8933L37.9187 21.5104Z" fill="white"/>
<path d="M33.5962 8.56892C39.3161 8.56892 43.9697 13.0506 43.9697 18.5601C43.9697 24.0697 39.3161 28.5513 33.5962 28.5513C27.8763 28.5513 23.2227 24.0697 23.2227 18.5601C23.2227 13.0506 27.8763 8.56892 33.5962 8.56892ZM33.5962 3.76025C25.2111 3.76025 18.4141 10.3866 18.4141 18.5601C18.4141 26.7337 25.2111 33.36 33.5962 33.36C41.9813 33.36 48.7784 26.7337 48.7784 18.5601C48.7772 10.3854 41.9801 3.76025 33.5962 3.76025Z" fill="white"/>
<path d="M8.86946 44.328C9.60994 44.4858 10.2047 44.8561 10.6539 45.4387C11.103 46.0093 11.3276 46.6648 11.3276 47.4052C11.3276 48.4735 10.9513 49.3232 10.1987 49.9544C9.4582 50.5735 8.42032 50.8831 7.08503 50.8831H1.13088V38.1007H6.88474C8.18361 38.1007 9.19721 38.3981 9.92555 38.993C10.666 39.5878 11.0363 40.395 11.0363 41.4147C11.0363 42.1673 10.836 42.7924 10.4354 43.2901C10.0469 43.7878 9.52496 44.1338 8.86946 44.328ZM4.24452 43.2719H6.28386C6.7937 43.2719 7.18214 43.1627 7.4492 42.9442C7.7284 42.7135 7.868 42.3797 7.868 41.9427C7.868 41.5057 7.7284 41.1719 7.4492 40.9413C7.18214 40.7106 6.7937 40.5953 6.28386 40.5953H4.24452V43.2719ZM6.53878 48.3703C7.06076 48.3703 7.46134 48.255 7.74054 48.0243C8.03187 47.7816 8.17754 47.4356 8.17754 46.9865C8.17754 46.5373 8.0258 46.1853 7.72233 45.9304C7.43099 45.6754 7.02434 45.548 6.50236 45.548H4.24452V48.3703H6.53878ZM16.2471 42.4161C16.6113 41.8577 17.0665 41.4207 17.6128 41.1051C18.159 40.7774 18.766 40.6135 19.4336 40.6135V43.9092H18.5778C17.8009 43.9092 17.2183 44.0792 16.8298 44.4191C16.4414 44.7468 16.2471 45.3295 16.2471 46.1671V50.8831H13.1335V40.7228H16.2471V42.4161ZM20.3028 45.7847C20.3028 44.7407 20.497 43.8243 20.8855 43.0352C21.286 42.2462 21.8262 41.6392 22.506 41.2144C23.1858 40.7895 23.9445 40.5771 24.7821 40.5771C25.4983 40.5771 26.1234 40.7228 26.6575 41.0141C27.2038 41.3054 27.6226 41.6878 27.9139 42.1612V40.7228H31.0276V50.8831H27.9139V49.4446C27.6104 49.918 27.1856 50.3004 26.6393 50.5917C26.1052 50.8831 25.4801 51.0287 24.7639 51.0287C23.9384 51.0287 23.1858 50.8163 22.506 50.3914C21.8262 49.9544 21.286 49.3414 20.8855 48.5524C20.497 47.7512 20.3028 46.8286 20.3028 45.7847ZM27.9139 45.8029C27.9139 45.026 27.6954 44.413 27.2584 43.9639C26.8335 43.5147 26.3116 43.2901 25.6925 43.2901C25.0734 43.2901 24.5454 43.5147 24.1084 43.9639C23.6835 44.4009 23.4711 45.0078 23.4711 45.7847C23.4711 46.5616 23.6835 47.1807 24.1084 47.642C24.5454 48.0911 25.0734 48.3157 25.6925 48.3157C26.3116 48.3157 26.8335 48.0911 27.2584 47.642C27.6954 47.1928 27.9139 46.5798 27.9139 45.8029ZM39.471 40.6135C40.6606 40.6135 41.6075 41.0019 42.3115 41.7788C43.0277 42.5436 43.3858 43.5997 43.3858 44.9471V50.8831H40.2904V45.3659C40.2904 44.6861 40.1144 44.1581 39.7623 43.7818C39.4103 43.4055 38.9369 43.2173 38.3421 43.2173C37.7473 43.2173 37.2739 43.4055 36.9218 43.7818C36.5698 44.1581 36.3938 44.6861 36.3938 45.3659V50.8831H33.2801V40.7228H36.3938V42.0702C36.7094 41.621 37.1343 41.269 37.6684 41.0141C38.2025 40.747 38.8034 40.6135 39.471 40.6135ZM44.9304 45.7847C44.9304 44.7407 45.1246 43.8243 45.5131 43.0352C45.9137 42.2462 46.4538 41.6392 47.1336 41.2144C47.8134 40.7895 48.5721 40.5771 49.4097 40.5771C50.0773 40.5771 50.6843 40.7167 51.2305 40.9959C51.7889 41.2751 52.2259 41.6514 52.5415 42.1248V37.4088H55.6552V50.8831H52.5415V49.4264C52.2502 49.9119 51.8314 50.3004 51.2851 50.5917C50.751 50.8831 50.1259 51.0287 49.4097 51.0287C48.5721 51.0287 47.8134 50.8163 47.1336 50.3914C46.4538 49.9544 45.9137 49.3414 45.5131 48.5524C45.1246 47.7512 44.9304 46.8286 44.9304 45.7847ZM52.5415 45.8029C52.5415 45.026 52.323 44.413 51.886 43.9639C51.4612 43.5147 50.9392 43.2901 50.3201 43.2901C49.701 43.2901 49.173 43.5147 48.736 43.9639C48.3111 44.4009 48.0987 45.0078 48.0987 45.7847C48.0987 46.5616 48.3111 47.1807 48.736 47.642C49.173 48.0911 49.701 48.3157 50.3201 48.3157C50.9392 48.3157 51.4612 48.0911 51.886 47.642C52.323 47.1928 52.5415 46.5798 52.5415 45.8029Z" fill="white"/>
<path d="M50.2917 54.1283C50.1504 53.8532 49.9534 53.6465 49.7007 53.5082C49.448 53.3646 49.1553 53.292 48.8228 53.2905C48.4587 53.2889 48.1337 53.3693 47.848 53.5317C47.5623 53.694 47.3369 53.9252 47.172 54.2254C47.0123 54.5255 46.9316 54.8735 46.9299 55.2693C46.9281 55.6651 47.0058 56.0165 47.1627 56.3233C47.325 56.6248 47.5483 56.8581 47.8326 57.0229C48.1169 57.1878 48.4411 57.271 48.8052 57.2727C49.2961 57.2748 49.6952 57.1394 50.0025 56.8663C50.3098 56.5932 50.4988 56.2219 50.5695 55.7525L48.5032 55.7434L48.5064 55.0229L51.5385 55.0363L51.5354 55.7409C51.4755 56.1682 51.3207 56.5607 51.071 56.9185C50.8267 57.2763 50.5061 57.5625 50.1093 57.7772C49.7178 57.9866 49.2819 58.0902 48.8016 58.0881C48.2844 58.0858 47.8126 57.9649 47.3861 57.7256C46.9597 57.4809 46.6208 57.1442 46.3693 56.7156C46.1231 56.287 46.0013 55.8036 46.0036 55.2652C46.006 54.7269 46.1322 54.2445 46.3821 53.8181C46.6373 53.3917 46.9792 53.0607 47.4078 52.8251C47.8416 52.5842 48.3145 52.4649 48.8265 52.4672C49.4123 52.4698 49.9315 52.6172 50.3842 52.9095C50.8421 53.1966 51.1728 53.6044 51.3763 54.1331L50.2917 54.1283ZM54.3071 58.1362C53.8954 58.1343 53.5238 58.0403 53.1921 57.8541C52.8604 57.6627 52.6003 57.3976 52.4118 57.059C52.2233 56.7151 52.1301 56.3189 52.1321 55.8702C52.134 55.4269 52.2334 55.0341 52.4302 54.6919C52.627 54.3497 52.8947 54.087 53.2333 53.9038C53.5719 53.7206 53.9497 53.6299 54.3666 53.6317C54.7836 53.6336 55.1605 53.7276 55.4975 53.9138C55.8344 54.1 56.0998 54.3651 56.2936 54.709C56.4873 55.0529 56.5832 55.4466 56.5813 55.8899C56.5793 56.3332 56.4773 56.726 56.2752 57.0682C56.0731 57.4103 55.7975 57.6756 55.4483 57.8641C55.1045 58.0473 54.7241 58.138 54.3071 58.1362ZM54.3106 57.3524C54.5428 57.3534 54.7594 57.299 54.9605 57.189C55.1668 57.0791 55.3338 56.9136 55.4614 56.6925C55.5891 56.4714 55.6536 56.2025 55.655 55.8858C55.6564 55.5691 55.5969 55.3023 55.4765 55.0854C55.3561 54.8632 55.1958 54.6962 54.9957 54.5845C54.7957 54.4728 54.5795 54.4164 54.3473 54.4154C54.1151 54.4144 53.8985 54.4688 53.6974 54.5788C53.5016 54.6888 53.3452 54.8543 53.2281 55.0755C53.111 55.2914 53.0518 55.5576 53.0504 55.8743C53.0483 56.344 53.1655 56.7087 53.4018 56.9684C53.6435 57.2228 53.9464 57.3508 54.3106 57.3524ZM58.5327 54.4577L58.5221 56.8723C58.5213 57.0359 58.5578 57.1548 58.6313 57.229C58.7102 57.298 58.842 57.3328 59.0267 57.3337L59.5809 57.3361L59.5775 58.0882L58.865 58.0851C58.4586 58.0833 58.1477 57.9869 57.9321 57.7959C57.7166 57.605 57.6097 57.2957 57.6116 56.8682L57.6223 54.4536L57.1077 54.4514L57.111 53.7151L57.6256 53.7174L57.6304 52.6328L58.5408 52.6368L58.536 53.7214L59.5968 53.7261L59.5936 54.4623L58.5327 54.4577ZM62.3011 58.1715C61.8895 58.1697 61.5178 58.0757 61.1861 57.8895C60.8544 57.698 60.5944 57.433 60.4058 57.0943C60.2174 56.7504 60.1241 56.3542 60.1261 55.9056C60.1281 55.4622 60.2274 55.0695 60.4242 54.7273C60.621 54.3851 60.8887 54.1224 61.2273 53.9391C61.5659 53.7559 61.9437 53.6652 62.3606 53.6671C62.7776 53.6689 63.1545 53.7629 63.4915 53.9491C63.8285 54.1354 64.0938 54.4004 64.2876 54.7444C64.4813 55.0883 64.5772 55.4819 64.5753 55.9252C64.5733 56.3686 64.4713 56.7613 64.2692 57.1035C64.0672 57.4457 63.7915 57.711 63.4424 57.8994C63.0985 58.0827 62.7181 58.1733 62.3011 58.1715ZM62.3046 57.3877C62.5368 57.3888 62.7535 57.3343 62.9545 57.2244C63.1608 57.1144 63.3278 56.9489 63.4555 56.7278C63.5831 56.5067 63.6476 56.2378 63.649 55.9211C63.6504 55.6045 63.5909 55.3377 63.4705 55.1207C63.3501 54.8985 63.1898 54.7316 62.9898 54.6199C62.7897 54.5081 62.5736 54.4518 62.3413 54.4507C62.1091 54.4497 61.8925 54.5042 61.6914 54.6141C61.4957 54.7241 61.3392 54.8897 61.2221 55.1108C61.1051 55.3267 61.0458 55.593 61.0444 55.9096C61.0424 56.3794 61.1595 56.744 61.3959 57.0037C61.6375 57.2581 61.9404 57.3861 62.3046 57.3877Z" fill="white"/>
</svg>
